<svg xmlns="http://www.w3.org/2000/svg" version="1.1" width="375" height="368.75" viewBox="0 0 375 368.75"><defs><clipPath id="clip-1"><rect x="62.49999999999999" y="12.500000000000016" width="300" height="300"/></clipPath></defs><path fill="none" stroke="#000000" d="M 62.5,312.5 L 62.5,12.5" style="stroke-width: 2px;opacity: 0.1" stroke-width="2" opacity="0.1"/><path fill="none" stroke="#000000" d="M 77.5,312.5 L 77.5,12.5" style="stroke-width: 2px;opacity: 0.1" stroke-width="2" opacity="0.1"/><path fill="none" stroke="#000000" d="M 92.5,312.5 L 92.5,12.5" style="stroke-width: 2px;opacity: 0.1" stroke-width="2" opacity="0.1"/><path fill="none" stroke="#000000" d="M 107.5,312.5 L 107.5,12.5" style="stroke-width: 2px;opacity: 0.1" stroke-width="2" opacity="0.1"/><path fill="none" stroke="#000000" d="M 122.5,312.5 L 122.5,12.5" style="stroke-width: 2px;opacity: 0.1" stroke-width="2" opacity="0.1"/><path fill="none" stroke="#000000" d="M 137.5,312.5 L 137.5,12.5" style="stroke-width: 2px;opacity: 0.1" stroke-width="2" opacity="0.1"/><path fill="none" stroke="#000000" d="M 152.5,312.5 L 152.5,12.5" style="stroke-width: 2px;opacity: 0.1" stroke-width="2" opacity="0.1"/><path fill="none" stroke="#000000" d="M 167.5,312.5 L 167.5,12.5" style="stroke-width: 2px;opacity: 0.1" stroke-width="2" opacity="0.1"/><path fill="none" stroke="#000000" d="M 182.5,312.5 L 182.5,12.5" style="stroke-width: 2px;opacity: 0.1" stroke-width="2" opacity="0.1"/><path fill="none" stroke="#000000" d="M 197.5,312.5 L 197.5,12.5" style="stroke-width: 2px;opacity: 0.1" stroke-width="2" opacity="0.1"/><path fill="none" stroke="#000000" d="M 212.5,312.5 L 212.5,12.5" style="stroke-width: 2px;opacity: 0.1" stroke-width="2" opacity="0.1"/><path fill="none" stroke="#000000" d="M 227.5,312.5 L 227.5,12.5" style="stroke-width: 2px;opacity: 0.1" stroke-width="2" opacity="0.1"/><path fill="none" stroke="#000000" d="M 242.5,312.5 L 242.5,12.5" style="stroke-width: 2px;opacity: 0.1" stroke-width="2" opacity="0.1"/><path fill="none" stroke="#000000" d="M 257.5,312.5 L 257.5,12.5" style="stroke-width: 2px;opacity: 0.1" stroke-width="2" opacity="0.1"/><path fill="none" stroke="#000000" d="M 272.5,312.5 L 272.5,12.5" style="stroke-width: 2px;opacity: 0.1" stroke-width="2" opacity="0.1"/><path fill="none" stroke="#000000" d="M 287.5,312.5 L 287.5,12.5" style="stroke-width: 2px;opacity: 0.1" stroke-width="2" opacity="0.1"/><path fill="none" stroke="#000000" d="M 302.5,312.5 L 302.5,12.5" style="stroke-width: 2px;opacity: 0.1" stroke-width="2" opacity="0.1"/><path fill="none" stroke="#000000" d="M 317.5,312.5 L 317.5,12.5" style="stroke-width: 2px;opacity: 0.1" stroke-width="2" opacity="0.1"/><path fill="none" stroke="#000000" d="M 332.5,312.5 L 332.5,12.5" style="stroke-width: 2px;opacity: 0.1" stroke-width="2" opacity="0.1"/><path fill="none" stroke="#000000" d="M 347.5,312.5 L 347.5,12.5" style="stroke-width: 2px;opacity: 0.1" stroke-width="2" opacity="0.1"/><path fill="none" stroke="#000000" d="M 62.5,312.5 L 362.5,312.5" style="stroke-width: 2px;opacity: 0.1" stroke-width="2" opacity="0.1"/><path fill="none" stroke="#000000" d="M 62.5,294.853 L 362.5,294.853" style="stroke-width: 2px;opacity: 0.1" stroke-width="2" opacity="0.1"/><path fill="none" stroke="#000000" d="M 62.5,277.206 L 362.5,277.206" style="stroke-width: 2px;opacity: 0.1" stroke-width="2" opacity="0.1"/><path fill="none" stroke="#000000" d="M 62.5,259.559 L 362.5,259.559" style="stroke-width: 2px;opacity: 0.1" stroke-width="2" opacity="0.1"/><path fill="none" stroke="#000000" d="M 62.5,241.912 L 362.5,241.912" style="stroke-width: 2px;opacity: 0.1" stroke-width="2" opacity="0.1"/><path fill="none" stroke="#000000" d="M 62.5,224.265 L 362.5,224.265" style="stroke-width: 2px;opacity: 0.1" stroke-width="2" opacity="0.1"/><path fill="none" stroke="#000000" d="M 62.5,206.618 L 362.5,206.618" style="stroke-width: 2px;opacity: 0.1" stroke-width="2" opacity="0.1"/><path fill="none" stroke="#000000" d="M 62.5,188.971 L 362.5,188.971" style="stroke-width: 2px;opacity: 0.1" stroke-width="2" opacity="0.1"/><path fill="none" stroke="#000000" d="M 62.5,171.324 L 362.5,171.324" style="stroke-width: 2px;opacity: 0.1" stroke-width="2" opacity="0.1"/><path fill="none" stroke="#000000" d="M 62.5,153.676 L 362.5,153.676" style="stroke-width: 2px;opacity: 0.1" stroke-width="2" opacity="0.1"/><path fill="none" stroke="#000000" d="M 62.5,136.029 L 362.5,136.029" style="stroke-width: 2px;opacity: 0.1" stroke-width="2" opacity="0.1"/><path fill="none" stroke="#000000" d="M 62.5,118.382 L 362.5,118.382" style="stroke-width: 2px;opacity: 0.1" stroke-width="2" opacity="0.1"/><path fill="none" stroke="#000000" d="M 62.5,100.735 L 362.5,100.735" style="stroke-width: 2px;opacity: 0.1" stroke-width="2" opacity="0.1"/><path fill="none" stroke="#000000" d="M 62.5,83.0882 L 362.5,83.0882" style="stroke-width: 2px;opacity: 0.1" stroke-width="2" opacity="0.1"/><path fill="none" stroke="#000000" d="M 62.5,65.4412 L 362.5,65.4412" style="stroke-width: 2px;opacity: 0.1" stroke-width="2" opacity="0.1"/><path fill="none" stroke="#000000" d="M 62.5,47.7941 L 362.5,47.7941" style="stroke-width: 2px;opacity: 0.1" stroke-width="2" opacity="0.1"/><path fill="none" stroke="#000000" d="M 62.5,30.1471 L 362.5,30.1471" style="stroke-width: 2px;opacity: 0.1" stroke-width="2" opacity="0.1"/><path fill="none" stroke="#000000" d="M 62.5,12.5 L 362.5,12.5" style="stroke-width: 2px;opacity: 0.1" stroke-width="2" opacity="0.1"/><path fill="none" stroke="#000000" d="M 62.5,312.5 L 62.5,312.5" style="stroke-width: 2px;opacity: 1" stroke-width="2" opacity="1"/><path fill="none" stroke="#000000" d="M 356.95,318.1 C 357.3,316 361.15,312.85 362.2,312.5 C 361.15,312.15 357.3,309 356.95,306.9" transform="" style="stroke-width: 2px;opacity: 1;stroke-linejoin: round;stroke-linecap: round" stroke-width="2" opacity="1" stroke-linejoin="round" stroke-linecap="round"/><path fill="none" stroke="#000000" d="M 62.5,312.5 S 62.5,312.5 361.45,312.5" style="stroke-width: 2px;opacity: 1" stroke-width="2" opacity="1"/><path fill="none" stroke="#000000" d="M 62.5,312.5 L 62.5,312.5" style="stroke-width: 2px;opacity: 1" stroke-width="2" opacity="1"/><path fill="none" stroke="#000000" d="M 58,19.15 C 58.35,17.05 62.2,13.9 63.25,13.55 C 62.2,13.2 58.35,10.05 58,7.95" transform="rotate(-90 63.24999999999999 13.550000000000011)" style="stroke-width: 2px;opacity: 1;stroke-linejoin: round;stroke-linecap: round" stroke-width="2" opacity="1" stroke-linejoin="round" stroke-linecap="round"/><path fill="none" stroke="#000000" d="M 62.5,312.5 S 62.5,312.5 62.5,13.55" style="stroke-width: 2px;opacity: 1" stroke-width="2" opacity="1"/><path fill="none" stroke="#000000" d="M 92.5,317.5 L 92.5,307.5" style="stroke-width: 1px;opacity: 1" stroke-width="1" opacity="1"/><path fill="none" stroke="#000000" d="M 122.5,317.5 L 122.5,307.5" style="stroke-width: 1px;opacity: 1" stroke-width="1" opacity="1"/><path fill="none" stroke="#000000" d="M 152.5,317.5 L 152.5,307.5" style="stroke-width: 1px;opacity: 1" stroke-width="1" opacity="1"/><path fill="none" stroke="#000000" d="M 182.5,317.5 L 182.5,307.5" style="stroke-width: 1px;opacity: 1" stroke-width="1" opacity="1"/><path fill="none" stroke="#000000" d="M 212.5,317.5 L 212.5,307.5" style="stroke-width: 1px;opacity: 1" stroke-width="1" opacity="1"/><path fill="none" stroke="#000000" d="M 242.5,317.5 L 242.5,307.5" style="stroke-width: 1px;opacity: 1" stroke-width="1" opacity="1"/><path fill="none" stroke="#000000" d="M 272.5,317.5 L 272.5,307.5" style="stroke-width: 1px;opacity: 1" stroke-width="1" opacity="1"/><path fill="none" stroke="#000000" d="M 302.5,317.5 L 302.5,307.5" style="stroke-width: 1px;opacity: 1" stroke-width="1" opacity="1"/><path fill="none" stroke="#000000" d="M 332.5,317.5 L 332.5,307.5" style="stroke-width: 1px;opacity: 1" stroke-width="1" opacity="1"/><path fill="none" stroke="#000000" d="M 362.5,317.5 L 362.5,307.5" style="stroke-width: 1px;opacity: 1" stroke-width="1" opacity="1"/><path fill="none" stroke="#000000" d="M 57.5,294.853 L 67.5,294.853" style="stroke-width: 1px;opacity: 1" stroke-width="1" opacity="1"/><path fill="none" stroke="#000000" d="M 57.5,277.206 L 67.5,277.206" style="stroke-width: 1px;opacity: 1" stroke-width="1" opacity="1"/><path fill="none" stroke="#000000" d="M 57.5,259.559 L 67.5,259.559" style="stroke-width: 1px;opacity: 1" stroke-width="1" opacity="1"/><path fill="none" stroke="#000000" d="M 57.5,241.912 L 67.5,241.912" style="stroke-width: 1px;opacity: 1" stroke-width="1" opacity="1"/><path fill="none" stroke="#000000" d="M 57.5,224.265 L 67.5,224.265" style="stroke-width: 1px;opacity: 1" stroke-width="1" opacity="1"/><path fill="none" stroke="#000000" d="M 57.5,206.618 L 67.5,206.618" style="stroke-width: 1px;opacity: 1" stroke-width="1" opacity="1"/><path fill="none" stroke="#000000" d="M 57.5,188.971 L 67.5,188.971" style="stroke-width: 1px;opacity: 1" stroke-width="1" opacity="1"/><path fill="none" stroke="#000000" d="M 57.5,171.324 L 67.5,171.324" style="stroke-width: 1px;opacity: 1" stroke-width="1" opacity="1"/><path fill="none" stroke="#000000" d="M 57.5,153.676 L 67.5,153.676" style="stroke-width: 1px;opacity: 1" stroke-width="1" opacity="1"/><path fill="none" stroke="#000000" d="M 57.5,136.029 L 67.5,136.029" style="stroke-width: 1px;opacity: 1" stroke-width="1" opacity="1"/><path fill="none" stroke="#000000" d="M 57.5,118.382 L 67.5,118.382" style="stroke-width: 1px;opacity: 1" stroke-width="1" opacity="1"/><path fill="none" stroke="#000000" d="M 57.5,100.735 L 67.5,100.735" style="stroke-width: 1px;opacity: 1" stroke-width="1" opacity="1"/><path fill="none" stroke="#000000" d="M 57.5,83.0882 L 67.5,83.0882" style="stroke-width: 1px;opacity: 1" stroke-width="1" opacity="1"/><path fill="none" stroke="#000000" d="M 57.5,65.4412 L 67.5,65.4412" style="stroke-width: 1px;opacity: 1" stroke-width="1" opacity="1"/><path fill="none" stroke="#000000" d="M 57.5,47.7941 L 67.5,47.7941" style="stroke-width: 1px;opacity: 1" stroke-width="1" opacity="1"/><path fill="none" stroke="#000000" d="M 57.5,30.1471 L 67.5,30.1471" style="stroke-width: 1px;opacity: 1" stroke-width="1" opacity="1"/><ellipse cx="83.5" cy="136.02941176470588" rx="4" ry="3.9999999999999996" fill="#000000" stroke="#000000" style="stroke-width: 2px" stroke-width="2" clip-path="url(#clip-1)"/><ellipse cx="206.49999999999997" cy="197.79411764705884" rx="4" ry="3.9999999999999996" fill="#000000" stroke="#000000" style="stroke-width: 2px" stroke-width="2" clip-path="url(#clip-1)"/><ellipse cx="137.5" cy="180.14705882352942" rx="4" ry="3.9999999999999996" fill="#000000" stroke="#000000" style="stroke-width: 2px" stroke-width="2" clip-path="url(#clip-1)"/><ellipse cx="74.5" cy="107.79411764705884" rx="4" ry="3.9999999999999996" fill="#000000" stroke="#000000" style="stroke-width: 2px" stroke-width="2" clip-path="url(#clip-1)"/><ellipse cx="212.49999999999997" cy="196.02941176470588" rx="4" ry="3.9999999999999996" fill="#000000" stroke="#000000" style="stroke-width: 2px" stroke-width="2" clip-path="url(#clip-1)"/><ellipse cx="116.49999999999999" cy="97.20588235294119" rx="4" ry="3.9999999999999996" fill="#000000" stroke="#000000" style="stroke-width: 2px" stroke-width="2" clip-path="url(#clip-1)"/><ellipse cx="314.5" cy="199.55882352941177" rx="4" ry="3.9999999999999996" fill="#000000" stroke="#000000" style="stroke-width: 2px" stroke-width="2" clip-path="url(#clip-1)"/><ellipse cx="239.5" cy="227.79411764705884" rx="4" ry="3.9999999999999996" fill="#000000" stroke="#000000" style="stroke-width: 2px" stroke-width="2" clip-path="url(#clip-1)"/><ellipse cx="236.5" cy="215.44117647058823" rx="4" ry="3.9999999999999996" fill="#000000" stroke="#000000" style="stroke-width: 2px" stroke-width="2" clip-path="url(#clip-1)"/><ellipse cx="119.5" cy="151.91176470588238" rx="4" ry="3.9999999999999996" fill="#000000" stroke="#000000" style="stroke-width: 2px" stroke-width="2" clip-path="url(#clip-1)"/><ellipse cx="80.5" cy="47.79411764705884" rx="4" ry="3.9999999999999996" fill="#000000" stroke="#000000" style="stroke-width: 2px" stroke-width="2" clip-path="url(#clip-1)"/><ellipse cx="254.50000000000003" cy="215.44117647058823" rx="4" ry="3.9999999999999996" fill="#000000" stroke="#000000" style="stroke-width: 2px" stroke-width="2" clip-path="url(#clip-1)"/><ellipse cx="71.5" cy="24.852941176470605" rx="4" ry="3.9999999999999996" fill="#000000" stroke="#000000" style="stroke-width: 2px" stroke-width="2" clip-path="url(#clip-1)"/><ellipse cx="80.5" cy="56.61764705882354" rx="4" ry="3.9999999999999996" fill="#000000" stroke="#000000" style="stroke-width: 2px" stroke-width="2" clip-path="url(#clip-1)"/><ellipse cx="80.5" cy="91.91176470588236" rx="4" ry="3.9999999999999996" fill="#000000" stroke="#000000" style="stroke-width: 2px" stroke-width="2" clip-path="url(#clip-1)"/><ellipse cx="83.5" cy="136.02941176470588" rx="4" ry="3.9999999999999996" fill="#000000" stroke="#000000" style="stroke-width: 2px" stroke-width="2" clip-path="url(#clip-1)"/><ellipse cx="338.5" cy="282.5" rx="4" ry="3.9999999999999996" fill="#000000" stroke="#000000" style="stroke-width: 2px" stroke-width="2" clip-path="url(#clip-1)"/><ellipse cx="272.49999999999994" cy="213.6764705882353" rx="4" ry="3.9999999999999996" fill="#000000" stroke="#000000" style="stroke-width: 2px" stroke-width="2" clip-path="url(#clip-1)"/><ellipse cx="320.5" cy="178.3823529411765" rx="4" ry="3.9999999999999996" fill="#000000" stroke="#000000" style="stroke-width: 2px" stroke-width="2" clip-path="url(#clip-1)"/><ellipse cx="77.49999999999999" cy="38.97058823529413" rx="4" ry="3.9999999999999996" fill="#000000" stroke="#000000" style="stroke-width: 2px" stroke-width="2" clip-path="url(#clip-1)"/><ellipse cx="83.5" cy="35.44117647058825" rx="4" ry="3.9999999999999996" fill="#000000" stroke="#000000" style="stroke-width: 2px" stroke-width="2" clip-path="url(#clip-1)"/><ellipse cx="71.5" cy="139.55882352941177" rx="4" ry="3.9999999999999996" fill="#000000" stroke="#000000" style="stroke-width: 2px" stroke-width="2" clip-path="url(#clip-1)"/><ellipse cx="74.5" cy="56.61764705882354" rx="4" ry="3.9999999999999996" fill="#000000" stroke="#000000" style="stroke-width: 2px" stroke-width="2" clip-path="url(#clip-1)"/><ellipse cx="134.5" cy="157.2058823529412" rx="4" ry="3.9999999999999996" fill="#000000" stroke="#000000" style="stroke-width: 2px" stroke-width="2" clip-path="url(#clip-1)"/><ellipse cx="74.5" cy="60.14705882352943" rx="4" ry="3.9999999999999996" fill="#000000" stroke="#000000" style="stroke-width: 2px" stroke-width="2" clip-path="url(#clip-1)"/><ellipse cx="191.5" cy="222.5" rx="4" ry="3.9999999999999996" fill="#000000" stroke="#000000" style="stroke-width: 2px" stroke-width="2" clip-path="url(#clip-1)"/><ellipse cx="293.5" cy="181.91176470588238" rx="4" ry="3.9999999999999996" fill="#000000" stroke="#000000" style="stroke-width: 2px" stroke-width="2" clip-path="url(#clip-1)"/><ellipse cx="290.5" cy="199.55882352941177" rx="4" ry="3.9999999999999996" fill="#000000" stroke="#000000" style="stroke-width: 2px" stroke-width="2" clip-path="url(#clip-1)"/><ellipse cx="95.49999999999999" cy="137.79411764705884" rx="4" ry="3.9999999999999996" fill="#000000" stroke="#000000" style="stroke-width: 2px" stroke-width="2" clip-path="url(#clip-1)"/><ellipse cx="317.5" cy="226.02941176470588" rx="4" ry="3.9999999999999996" fill="#000000" stroke="#000000" style="stroke-width: 2px" stroke-width="2" clip-path="url(#clip-1)"/><ellipse cx="251.5" cy="204.8529411764706" rx="4" ry="3.9999999999999996" fill="#000000" stroke="#000000" style="stroke-width: 2px" stroke-width="2" clip-path="url(#clip-1)"/><ellipse cx="74.5" cy="58.382352941176485" rx="4" ry="3.9999999999999996" fill="#000000" stroke="#000000" style="stroke-width: 2px" stroke-width="2" clip-path="url(#clip-1)"/><ellipse cx="125.5" cy="139.55882352941177" rx="4" ry="3.9999999999999996" fill="#000000" stroke="#000000" style="stroke-width: 2px" stroke-width="2" clip-path="url(#clip-1)"/><ellipse cx="77.49999999999999" cy="104.26470588235296" rx="4" ry="3.9999999999999996" fill="#000000" stroke="#000000" style="stroke-width: 2px" stroke-width="2" clip-path="url(#clip-1)"/><ellipse cx="224.5" cy="181.91176470588238" rx="4" ry="3.9999999999999996" fill="#000000" stroke="#000000" style="stroke-width: 2px" stroke-width="2" clip-path="url(#clip-1)"/><ellipse cx="275.49999999999994" cy="222.5" rx="4" ry="3.9999999999999996" fill="#000000" stroke="#000000" style="stroke-width: 2px" stroke-width="2" clip-path="url(#clip-1)"/><ellipse cx="263.5" cy="233.08823529411765" rx="4" ry="3.9999999999999996" fill="#000000" stroke="#000000" style="stroke-width: 2px" stroke-width="2" clip-path="url(#clip-1)"/><ellipse cx="260.5" cy="233.08823529411765" rx="4" ry="3.9999999999999996" fill="#000000" stroke="#000000" style="stroke-width: 2px" stroke-width="2" clip-path="url(#clip-1)"/><ellipse cx="71.5" cy="42.500000000000014" rx="4" ry="3.9999999999999996" fill="#000000" stroke="#000000" style="stroke-width: 2px" stroke-width="2" clip-path="url(#clip-1)"/><ellipse cx="92.5" cy="98.97058823529413" rx="4" ry="3.9999999999999996" fill="#000000" stroke="#000000" style="stroke-width: 2px" stroke-width="2" clip-path="url(#clip-1)"/><ellipse cx="221.5" cy="215.44117647058823" rx="4" ry="3.9999999999999996" fill="#000000" stroke="#000000" style="stroke-width: 2px" stroke-width="2" clip-path="url(#clip-1)"/><ellipse cx="80.5" cy="120.14705882352942" rx="4" ry="3.9999999999999996" fill="#000000" stroke="#000000" style="stroke-width: 2px" stroke-width="2" clip-path="url(#clip-1)"/><ellipse cx="260.5" cy="187.2058823529412" rx="4" ry="3.9999999999999996" fill="#000000" stroke="#000000" style="stroke-width: 2px" stroke-width="2" clip-path="url(#clip-1)"/><ellipse cx="263.5" cy="203.08823529411765" rx="4" ry="3.9999999999999996" fill="#000000" stroke="#000000" style="stroke-width: 2px" stroke-width="2" clip-path="url(#clip-1)"/><ellipse cx="224.5" cy="167.79411764705884" rx="4" ry="3.9999999999999996" fill="#000000" stroke="#000000" style="stroke-width: 2px" stroke-width="2" clip-path="url(#clip-1)"/><ellipse cx="74.5" cy="40.73529411764707" rx="4" ry="3.9999999999999996" fill="#000000" stroke="#000000" style="stroke-width: 2px" stroke-width="2" clip-path="url(#clip-1)"/><ellipse cx="77.49999999999999" cy="106.0294117647059" rx="4" ry="3.9999999999999996" fill="#000000" stroke="#000000" style="stroke-width: 2px" stroke-width="2" clip-path="url(#clip-1)"/><ellipse cx="275.49999999999994" cy="233.08823529411765" rx="4" ry="3.9999999999999996" fill="#000000" stroke="#000000" style="stroke-width: 2px" stroke-width="2" clip-path="url(#clip-1)"/><ellipse cx="284.5" cy="241.91176470588238" rx="4" ry="3.9999999999999996" fill="#000000" stroke="#000000" style="stroke-width: 2px" stroke-width="2" clip-path="url(#clip-1)"/><ellipse cx="110.49999999999999" cy="211.91176470588238" rx="4" ry="3.9999999999999996" fill="#55c1a7" stroke="#55c1a7" style="stroke-width: 2px" stroke-width="2" clip-path="url(#clip-1)"/><ellipse cx="290.5" cy="287.79411764705884" rx="4" ry="3.9999999999999996" fill="#55c1a7" stroke="#55c1a7" style="stroke-width: 2px" stroke-width="2" clip-path="url(#clip-1)"/><ellipse cx="338.5" cy="282.5" rx="4" ry="3.9999999999999996" fill="#55c1a7" stroke="#55c1a7" style="stroke-width: 2px" stroke-width="2" clip-path="url(#clip-1)"/></svg>